<mxfile host="app.diagrams.net" agent="Mozilla/5.0 (Windows NT 10.0; Win64; x64) AppleWebKit/537.36 (KHTML, like Gecko) Chrome/135.0.0.0 Safari/537.36" version="26.1.3">
  <diagram name="Lab4_7" id="ipPQ2J51Wn1R1ycVvAwN">
    <mxGraphModel grid="1" page="1" gridSize="10" guides="1" tooltips="1" connect="1" arrows="1" fold="1" pageScale="1" pageWidth="827" pageHeight="1169" math="0" shadow="0">
      <root>
        <mxCell id="0" />
        <mxCell id="1" parent="0" />
        <mxCell id="jw6jscuct_E67Px7HR3Y-1" value="BookstoreApp&lt;div&gt;&lt;br&gt;&lt;/div&gt;" style="swimlane;fontStyle=1;align=center;verticalAlign=top;childLayout=stackLayout;horizontal=1;startSize=26;horizontalStack=0;resizeParent=1;resizeParentMax=0;resizeLast=0;collapsible=1;marginBottom=0;whiteSpace=wrap;html=1;" vertex="1" parent="1">
          <mxGeometry x="314" y="90" width="200" height="140" as="geometry" />
        </mxCell>
        <mxCell id="jw6jscuct_E67Px7HR3Y-3" value="" style="line;strokeWidth=1;fillColor=none;align=left;verticalAlign=middle;spacingTop=-1;spacingLeft=3;spacingRight=3;rotatable=0;labelPosition=right;points=[];portConstraint=eastwest;strokeColor=inherit;" vertex="1" parent="jw6jscuct_E67Px7HR3Y-1">
          <mxGeometry y="26" width="200" height="8" as="geometry" />
        </mxCell>
        <mxCell id="jw6jscuct_E67Px7HR3Y-4" value="+ main_menu(): void&lt;div&gt;+import_books_menu(): void&lt;/div&gt;&lt;div&gt;+ create_invoice_menu(): void&lt;/div&gt;&lt;div&gt;+ show_books(): void&lt;/div&gt;" style="text;strokeColor=none;fillColor=none;align=left;verticalAlign=top;spacingLeft=4;spacingRight=4;overflow=hidden;rotatable=0;points=[[0,0.5],[1,0.5]];portConstraint=eastwest;whiteSpace=wrap;html=1;" vertex="1" parent="jw6jscuct_E67Px7HR3Y-1">
          <mxGeometry y="34" width="200" height="106" as="geometry" />
        </mxCell>
        <mxCell id="jw6jscuct_E67Px7HR3Y-5" value="BookstoreService" style="swimlane;fontStyle=1;align=center;verticalAlign=top;childLayout=stackLayout;horizontal=1;startSize=26;horizontalStack=0;resizeParent=1;resizeParentMax=0;resizeLast=0;collapsible=1;marginBottom=0;whiteSpace=wrap;html=1;" vertex="1" parent="1">
          <mxGeometry x="300" y="310" width="220" height="130" as="geometry" />
        </mxCell>
        <mxCell id="jw6jscuct_E67Px7HR3Y-7" value="" style="line;strokeWidth=1;fillColor=none;align=left;verticalAlign=middle;spacingTop=-1;spacingLeft=3;spacingRight=3;rotatable=0;labelPosition=right;points=[];portConstraint=eastwest;strokeColor=inherit;" vertex="1" parent="jw6jscuct_E67Px7HR3Y-5">
          <mxGeometry y="26" width="220" height="8" as="geometry" />
        </mxCell>
        <mxCell id="jw6jscuct_E67Px7HR3Y-8" value="+import_books(title, genre, stock, cost_price): void&lt;div&gt;+ create_invoice(customer_name, title, quantily): void&lt;/div&gt;&lt;div&gt;+ get_books(): List&amp;lt;Book&amp;gt;&lt;/div&gt;" style="text;strokeColor=none;fillColor=none;align=left;verticalAlign=top;spacingLeft=4;spacingRight=4;overflow=hidden;rotatable=0;points=[[0,0.5],[1,0.5]];portConstraint=eastwest;whiteSpace=wrap;html=1;" vertex="1" parent="jw6jscuct_E67Px7HR3Y-5">
          <mxGeometry y="34" width="220" height="96" as="geometry" />
        </mxCell>
        <mxCell id="jw6jscuct_E67Px7HR3Y-14" value="Invoice" style="swimlane;fontStyle=1;align=center;verticalAlign=top;childLayout=stackLayout;horizontal=1;startSize=26;horizontalStack=0;resizeParent=1;resizeParentMax=0;resizeLast=0;collapsible=1;marginBottom=0;whiteSpace=wrap;html=1;" vertex="1" parent="1">
          <mxGeometry x="90" y="510" width="200" height="280" as="geometry" />
        </mxCell>
        <mxCell id="jw6jscuct_E67Px7HR3Y-15" value="+ invoice_id: interger&lt;br&gt;+custemer_name: String&amp;nbsp;&lt;div&gt;+invoice_date: date&lt;br&gt;+book_id: interger&lt;/div&gt;&lt;div&gt;+quantity:interger&lt;br&gt;+total_price: Float&lt;/div&gt;" style="text;strokeColor=none;fillColor=none;align=left;verticalAlign=top;spacingLeft=4;spacingRight=4;overflow=hidden;rotatable=0;points=[[0,0.5],[1,0.5]];portConstraint=eastwest;whiteSpace=wrap;html=1;" vertex="1" parent="jw6jscuct_E67Px7HR3Y-14">
          <mxGeometry y="26" width="200" height="104" as="geometry" />
        </mxCell>
        <mxCell id="jw6jscuct_E67Px7HR3Y-16" value="" style="line;strokeWidth=1;fillColor=none;align=left;verticalAlign=middle;spacingTop=-1;spacingLeft=3;spacingRight=3;rotatable=0;labelPosition=right;points=[];portConstraint=eastwest;strokeColor=inherit;" vertex="1" parent="jw6jscuct_E67Px7HR3Y-14">
          <mxGeometry y="130" width="200" height="8" as="geometry" />
        </mxCell>
        <mxCell id="jw6jscuct_E67Px7HR3Y-17" value="+ create_invoice(customer_name, book_id, quantity):void&lt;div&gt;+calculate_total_price(quantity, sell_price): Float&lt;/div&gt;" style="text;strokeColor=none;fillColor=none;align=left;verticalAlign=top;spacingLeft=4;spacingRight=4;overflow=hidden;rotatable=0;points=[[0,0.5],[1,0.5]];portConstraint=eastwest;whiteSpace=wrap;html=1;" vertex="1" parent="jw6jscuct_E67Px7HR3Y-14">
          <mxGeometry y="138" width="200" height="142" as="geometry" />
        </mxCell>
        <mxCell id="jw6jscuct_E67Px7HR3Y-18" value="Inventory Report" style="swimlane;fontStyle=1;align=center;verticalAlign=top;childLayout=stackLayout;horizontal=1;startSize=26;horizontalStack=0;resizeParent=1;resizeParentMax=0;resizeLast=0;collapsible=1;marginBottom=0;whiteSpace=wrap;html=1;" vertex="1" parent="1">
          <mxGeometry x="460" y="520" width="230" height="170" as="geometry" />
        </mxCell>
        <mxCell id="jw6jscuct_E67Px7HR3Y-19" value="+book_id:interger&lt;div&gt;+innitial_stock: interger&lt;/div&gt;&lt;div&gt;+arise: intergher&lt;/div&gt;&lt;div&gt;+final_stock: interger&lt;/div&gt;" style="text;strokeColor=none;fillColor=none;align=left;verticalAlign=top;spacingLeft=4;spacingRight=4;overflow=hidden;rotatable=0;points=[[0,0.5],[1,0.5]];portConstraint=eastwest;whiteSpace=wrap;html=1;" vertex="1" parent="jw6jscuct_E67Px7HR3Y-18">
          <mxGeometry y="26" width="230" height="94" as="geometry" />
        </mxCell>
        <mxCell id="jw6jscuct_E67Px7HR3Y-20" value="" style="line;strokeWidth=1;fillColor=none;align=left;verticalAlign=middle;spacingTop=-1;spacingLeft=3;spacingRight=3;rotatable=0;labelPosition=right;points=[];portConstraint=eastwest;strokeColor=inherit;" vertex="1" parent="jw6jscuct_E67Px7HR3Y-18">
          <mxGeometry y="120" width="230" height="8" as="geometry" />
        </mxCell>
        <mxCell id="jw6jscuct_E67Px7HR3Y-21" value="+ generate_inventory_report(): String" style="text;strokeColor=none;fillColor=none;align=left;verticalAlign=top;spacingLeft=4;spacingRight=4;overflow=hidden;rotatable=0;points=[[0,0.5],[1,0.5]];portConstraint=eastwest;whiteSpace=wrap;html=1;" vertex="1" parent="jw6jscuct_E67Px7HR3Y-18">
          <mxGeometry y="128" width="230" height="42" as="geometry" />
        </mxCell>
        <mxCell id="jw6jscuct_E67Px7HR3Y-22" value="DAL" style="swimlane;fontStyle=1;align=center;verticalAlign=top;childLayout=stackLayout;horizontal=1;startSize=26;horizontalStack=0;resizeParent=1;resizeParentMax=0;resizeLast=0;collapsible=1;marginBottom=0;whiteSpace=wrap;html=1;" vertex="1" parent="1">
          <mxGeometry x="810" y="520" width="290" height="130" as="geometry" />
        </mxCell>
        <mxCell id="jw6jscuct_E67Px7HR3Y-24" value="" style="line;strokeWidth=1;fillColor=none;align=left;verticalAlign=middle;spacingTop=-1;spacingLeft=3;spacingRight=3;rotatable=0;labelPosition=right;points=[];portConstraint=eastwest;strokeColor=inherit;" vertex="1" parent="jw6jscuct_E67Px7HR3Y-22">
          <mxGeometry y="26" width="290" height="8" as="geometry" />
        </mxCell>
        <mxCell id="jw6jscuct_E67Px7HR3Y-25" value="+add_book(...&lt;span style=&quot;color: light-dark(rgb(0, 0, 0), rgb(255, 255, 255)); background-color: transparent;&quot;&gt;)&lt;/span&gt;&lt;div&gt;&lt;span style=&quot;background-color: transparent; color: light-dark(rgb(0, 0, 0), rgb(255, 255, 255));&quot;&gt;+get_book_by_title(title): book&lt;/span&gt;&lt;/div&gt;&lt;div&gt;&lt;span style=&quot;background-color: transparent; color: light-dark(rgb(0, 0, 0), rgb(255, 255, 255));&quot;&gt;+update_stock(book_id, new_stock):void&lt;/span&gt;&lt;/div&gt;&lt;div&gt;&lt;span style=&quot;background-color: transparent; color: light-dark(rgb(0, 0, 0), rgb(255, 255, 255));&quot;&gt;+add_invoice()&lt;/span&gt;&lt;/div&gt;&lt;div&gt;&lt;span style=&quot;background-color: transparent; color: light-dark(rgb(0, 0, 0), rgb(255, 255, 255));&quot;&gt;+get_all_books():List&amp;lt;Book&amp;gt;&lt;/span&gt;&lt;/div&gt;" style="text;strokeColor=none;fillColor=none;align=left;verticalAlign=top;spacingLeft=4;spacingRight=4;overflow=hidden;rotatable=0;points=[[0,0.5],[1,0.5]];portConstraint=eastwest;whiteSpace=wrap;html=1;" vertex="1" parent="jw6jscuct_E67Px7HR3Y-22">
          <mxGeometry y="34" width="290" height="96" as="geometry" />
        </mxCell>
        <mxCell id="jw6jscuct_E67Px7HR3Y-26" value="DebReport" style="swimlane;fontStyle=1;align=center;verticalAlign=top;childLayout=stackLayout;horizontal=1;startSize=26;horizontalStack=0;resizeParent=1;resizeParentMax=0;resizeLast=0;collapsible=1;marginBottom=0;whiteSpace=wrap;html=1;" vertex="1" parent="1">
          <mxGeometry x="1190" y="520" width="280" height="140" as="geometry" />
        </mxCell>
        <mxCell id="jw6jscuct_E67Px7HR3Y-27" value="+customer_name: String&lt;div&gt;+initial_debt:Float&lt;/div&gt;&lt;div&gt;+arise: Float&lt;/div&gt;&lt;div&gt;final_debt_report:(): String&lt;/div&gt;" style="text;strokeColor=none;fillColor=none;align=left;verticalAlign=top;spacingLeft=4;spacingRight=4;overflow=hidden;rotatable=0;points=[[0,0.5],[1,0.5]];portConstraint=eastwest;whiteSpace=wrap;html=1;" vertex="1" parent="jw6jscuct_E67Px7HR3Y-26">
          <mxGeometry y="26" width="280" height="74" as="geometry" />
        </mxCell>
        <mxCell id="jw6jscuct_E67Px7HR3Y-28" value="" style="line;strokeWidth=1;fillColor=none;align=left;verticalAlign=middle;spacingTop=-1;spacingLeft=3;spacingRight=3;rotatable=0;labelPosition=right;points=[];portConstraint=eastwest;strokeColor=inherit;" vertex="1" parent="jw6jscuct_E67Px7HR3Y-26">
          <mxGeometry y="100" width="280" height="8" as="geometry" />
        </mxCell>
        <mxCell id="jw6jscuct_E67Px7HR3Y-29" value="+generate_debt_report(): String" style="text;strokeColor=none;fillColor=none;align=left;verticalAlign=top;spacingLeft=4;spacingRight=4;overflow=hidden;rotatable=0;points=[[0,0.5],[1,0.5]];portConstraint=eastwest;whiteSpace=wrap;html=1;" vertex="1" parent="jw6jscuct_E67Px7HR3Y-26">
          <mxGeometry y="108" width="280" height="32" as="geometry" />
        </mxCell>
        <mxCell id="jw6jscuct_E67Px7HR3Y-30" value="Book" style="swimlane;fontStyle=1;align=center;verticalAlign=top;childLayout=stackLayout;horizontal=1;startSize=26;horizontalStack=0;resizeParent=1;resizeParentMax=0;resizeLast=0;collapsible=1;marginBottom=0;whiteSpace=wrap;html=1;" vertex="1" parent="1">
          <mxGeometry x="310" y="880" width="260" height="170" as="geometry" />
        </mxCell>
        <mxCell id="jw6jscuct_E67Px7HR3Y-31" value="+id: interger&lt;div&gt;+title: String&lt;/div&gt;&lt;div&gt;+genre: String&lt;/div&gt;&lt;div&gt;+stock: interger&lt;/div&gt;&lt;div&gt;+core_price: Float&lt;span style=&quot;background-color: transparent; color: light-dark(rgb(0, 0, 0), rgb(255, 255, 255)); white-space: pre;&quot;&gt;&#x9;&lt;/span&gt;&lt;/div&gt;" style="text;strokeColor=none;fillColor=none;align=left;verticalAlign=top;spacingLeft=4;spacingRight=4;overflow=hidden;rotatable=0;points=[[0,0.5],[1,0.5]];portConstraint=eastwest;whiteSpace=wrap;html=1;" vertex="1" parent="jw6jscuct_E67Px7HR3Y-30">
          <mxGeometry y="26" width="260" height="74" as="geometry" />
        </mxCell>
        <mxCell id="jw6jscuct_E67Px7HR3Y-32" value="" style="line;strokeWidth=1;fillColor=none;align=left;verticalAlign=middle;spacingTop=-1;spacingLeft=3;spacingRight=3;rotatable=0;labelPosition=right;points=[];portConstraint=eastwest;strokeColor=inherit;" vertex="1" parent="jw6jscuct_E67Px7HR3Y-30">
          <mxGeometry y="100" width="260" height="8" as="geometry" />
        </mxCell>
        <mxCell id="jw6jscuct_E67Px7HR3Y-33" value="+add_book(title, genre, stock, cost_price): void&lt;div&gt;+update_stock(stock): void&lt;/div&gt;&lt;div&gt;+view_details(): String&lt;/div&gt;" style="text;strokeColor=none;fillColor=none;align=left;verticalAlign=top;spacingLeft=4;spacingRight=4;overflow=hidden;rotatable=0;points=[[0,0.5],[1,0.5]];portConstraint=eastwest;whiteSpace=wrap;html=1;" vertex="1" parent="jw6jscuct_E67Px7HR3Y-30">
          <mxGeometry y="108" width="260" height="62" as="geometry" />
        </mxCell>
        <mxCell id="jw6jscuct_E67Px7HR3Y-34" value="Report" style="swimlane;fontStyle=1;align=center;verticalAlign=top;childLayout=stackLayout;horizontal=1;startSize=26;horizontalStack=0;resizeParent=1;resizeParentMax=0;resizeLast=0;collapsible=1;marginBottom=0;whiteSpace=wrap;html=1;" vertex="1" parent="1">
          <mxGeometry x="750" y="900" width="160" height="114" as="geometry" />
        </mxCell>
        <mxCell id="jw6jscuct_E67Px7HR3Y-35" value="+report_id: interger&lt;div&gt;+report_month: String&amp;nbsp;&lt;/div&gt;" style="text;strokeColor=none;fillColor=none;align=left;verticalAlign=top;spacingLeft=4;spacingRight=4;overflow=hidden;rotatable=0;points=[[0,0.5],[1,0.5]];portConstraint=eastwest;whiteSpace=wrap;html=1;" vertex="1" parent="jw6jscuct_E67Px7HR3Y-34">
          <mxGeometry y="26" width="160" height="54" as="geometry" />
        </mxCell>
        <mxCell id="jw6jscuct_E67Px7HR3Y-36" value="" style="line;strokeWidth=1;fillColor=none;align=left;verticalAlign=middle;spacingTop=-1;spacingLeft=3;spacingRight=3;rotatable=0;labelPosition=right;points=[];portConstraint=eastwest;strokeColor=inherit;" vertex="1" parent="jw6jscuct_E67Px7HR3Y-34">
          <mxGeometry y="80" width="160" height="8" as="geometry" />
        </mxCell>
        <mxCell id="jw6jscuct_E67Px7HR3Y-37" value="+generate_report(): String" style="text;strokeColor=none;fillColor=none;align=left;verticalAlign=top;spacingLeft=4;spacingRight=4;overflow=hidden;rotatable=0;points=[[0,0.5],[1,0.5]];portConstraint=eastwest;whiteSpace=wrap;html=1;" vertex="1" parent="jw6jscuct_E67Px7HR3Y-34">
          <mxGeometry y="88" width="160" height="26" as="geometry" />
        </mxCell>
        <mxCell id="jw6jscuct_E67Px7HR3Y-38" value="customer" style="swimlane;fontStyle=1;align=center;verticalAlign=top;childLayout=stackLayout;horizontal=1;startSize=26;horizontalStack=0;resizeParent=1;resizeParentMax=0;resizeLast=0;collapsible=1;marginBottom=0;whiteSpace=wrap;html=1;" vertex="1" parent="1">
          <mxGeometry x="1150" y="900" width="160" height="34" as="geometry" />
        </mxCell>
        <mxCell id="jw6jscuct_E67Px7HR3Y-40" value="" style="line;strokeWidth=1;fillColor=none;align=left;verticalAlign=middle;spacingTop=-1;spacingLeft=3;spacingRight=3;rotatable=0;labelPosition=right;points=[];portConstraint=eastwest;strokeColor=inherit;" vertex="1" parent="jw6jscuct_E67Px7HR3Y-38">
          <mxGeometry y="26" width="160" height="8" as="geometry" />
        </mxCell>
        <mxCell id="jw6jscuct_E67Px7HR3Y-42" value="" style="endArrow=classic;html=1;rounded=0;exitX=0.478;exitY=1.002;exitDx=0;exitDy=0;exitPerimeter=0;entryX=0.5;entryY=0;entryDx=0;entryDy=0;" edge="1" parent="1" source="jw6jscuct_E67Px7HR3Y-4" target="jw6jscuct_E67Px7HR3Y-5">
          <mxGeometry width="50" height="50" relative="1" as="geometry">
            <mxPoint x="510" y="410" as="sourcePoint" />
            <mxPoint x="560" y="360" as="targetPoint" />
          </mxGeometry>
        </mxCell>
        <mxCell id="jw6jscuct_E67Px7HR3Y-43" value="" style="endArrow=classic;html=1;rounded=0;exitX=0.155;exitY=1.01;exitDx=0;exitDy=0;exitPerimeter=0;entryX=0.552;entryY=-0.006;entryDx=0;entryDy=0;entryPerimeter=0;" edge="1" parent="1" source="jw6jscuct_E67Px7HR3Y-8" target="jw6jscuct_E67Px7HR3Y-14">
          <mxGeometry width="50" height="50" relative="1" as="geometry">
            <mxPoint x="510" y="310" as="sourcePoint" />
            <mxPoint x="560" y="260" as="targetPoint" />
          </mxGeometry>
        </mxCell>
        <mxCell id="jw6jscuct_E67Px7HR3Y-44" value="" style="endArrow=classic;html=1;rounded=0;exitX=0.838;exitY=1.01;exitDx=0;exitDy=0;exitPerimeter=0;entryX=0.25;entryY=0;entryDx=0;entryDy=0;" edge="1" parent="1" source="jw6jscuct_E67Px7HR3Y-8" target="jw6jscuct_E67Px7HR3Y-22">
          <mxGeometry width="50" height="50" relative="1" as="geometry">
            <mxPoint x="510" y="510" as="sourcePoint" />
            <mxPoint x="560" y="460" as="targetPoint" />
          </mxGeometry>
        </mxCell>
        <mxCell id="jw6jscuct_E67Px7HR3Y-45" value="" style="endArrow=classic;html=1;rounded=0;exitX=0.445;exitY=1.019;exitDx=0;exitDy=0;exitPerimeter=0;entryX=0.348;entryY=-0.004;entryDx=0;entryDy=0;entryPerimeter=0;" edge="1" parent="1" source="jw6jscuct_E67Px7HR3Y-8" target="jw6jscuct_E67Px7HR3Y-30">
          <mxGeometry width="50" height="50" relative="1" as="geometry">
            <mxPoint x="510" y="510" as="sourcePoint" />
            <mxPoint x="560" y="460" as="targetPoint" />
          </mxGeometry>
        </mxCell>
        <mxCell id="jw6jscuct_E67Px7HR3Y-46" value="" style="endArrow=classic;html=1;rounded=0;exitX=0.5;exitY=0;exitDx=0;exitDy=0;entryX=0.44;entryY=1.014;entryDx=0;entryDy=0;entryPerimeter=0;" edge="1" parent="1" source="jw6jscuct_E67Px7HR3Y-30" target="jw6jscuct_E67Px7HR3Y-21">
          <mxGeometry width="50" height="50" relative="1" as="geometry">
            <mxPoint x="510" y="710" as="sourcePoint" />
            <mxPoint x="560" y="660" as="targetPoint" />
          </mxGeometry>
        </mxCell>
        <mxCell id="jw6jscuct_E67Px7HR3Y-47" value="" style="endArrow=classic;html=1;rounded=0;exitX=0.798;exitY=0.976;exitDx=0;exitDy=0;exitPerimeter=0;entryX=0.5;entryY=0;entryDx=0;entryDy=0;" edge="1" parent="1" source="jw6jscuct_E67Px7HR3Y-21" target="jw6jscuct_E67Px7HR3Y-34">
          <mxGeometry width="50" height="50" relative="1" as="geometry">
            <mxPoint x="510" y="810" as="sourcePoint" />
            <mxPoint x="560" y="760" as="targetPoint" />
          </mxGeometry>
        </mxCell>
        <mxCell id="jw6jscuct_E67Px7HR3Y-48" value="" style="endArrow=classic;html=1;rounded=0;exitX=0.174;exitY=1.056;exitDx=0;exitDy=0;exitPerimeter=0;entryX=0.75;entryY=0;entryDx=0;entryDy=0;" edge="1" parent="1" source="jw6jscuct_E67Px7HR3Y-29" target="jw6jscuct_E67Px7HR3Y-34">
          <mxGeometry width="50" height="50" relative="1" as="geometry">
            <mxPoint x="780" y="810" as="sourcePoint" />
            <mxPoint x="830" y="760" as="targetPoint" />
          </mxGeometry>
        </mxCell>
        <mxCell id="jw6jscuct_E67Px7HR3Y-49" value="" style="endArrow=classic;html=1;rounded=0;exitX=0.317;exitY=0.956;exitDx=0;exitDy=0;exitPerimeter=0;entryX=0.8;entryY=-0.088;entryDx=0;entryDy=0;entryPerimeter=0;" edge="1" parent="1" source="jw6jscuct_E67Px7HR3Y-29" target="jw6jscuct_E67Px7HR3Y-38">
          <mxGeometry width="50" height="50" relative="1" as="geometry">
            <mxPoint x="780" y="810" as="sourcePoint" />
            <mxPoint x="830" y="760" as="targetPoint" />
          </mxGeometry>
        </mxCell>
      </root>
    </mxGraphModel>
  </diagram>
</mxfile>
